<svg width="36" height="36" viewBox="0 0 36 36" fill="none" xmlns="http://www.w3.org/2000/svg">
<g id="Heading Tech Icon">
<path id="Vector" d="M18 6C11.3726 6 6 11.3726 6 18C6 24.6274 11.3726 30 18 30C24.6274 30 30 24.6274 30 18C30 11.3726 24.6274 6 18 6ZM18 28.4516C12.2582 28.4516 7.54839 23.8038 7.54839 18C7.54839 12.2582 12.1962 7.54839 18 7.54839C23.7418 7.54839 28.4516 12.1962 28.4516 18C28.4516 23.7418 23.8038 28.4516 18 28.4516ZM24.7597 13.9511C24.858 14.3673 24.6002 14.7842 24.1841 14.8825C22.6838 15.2368 21.283 15.549 19.8927 15.7106C19.9186 21.268 20.5298 22.4842 21.2115 24.2285C21.406 24.7263 21.1601 25.2876 20.6622 25.482C20.164 25.6766 19.603 25.4303 19.4087 24.9327C18.9578 23.7791 18.5111 22.7763 18.2343 20.7096H17.7657C17.4885 22.7793 17.0405 23.7829 16.5913 24.9327C16.3966 25.431 15.8349 25.6763 15.3378 25.482C14.8399 25.2875 14.594 24.7263 14.7885 24.2285C15.4709 22.4825 16.0814 21.2655 16.1072 15.7106C14.7169 15.549 13.3161 15.2368 11.8158 14.8825C11.3997 14.7842 11.142 14.3673 11.2403 13.9511C11.3385 13.535 11.7555 13.2773 12.1717 13.3755C17.2631 14.5777 18.7272 14.58 23.8283 13.3755C24.2444 13.2777 24.6615 13.535 24.7597 13.9511ZM16.1519 11.8938C16.1519 10.8732 16.9793 10.0458 18 10.0458C19.0207 10.0458 19.8481 10.8732 19.8481 11.8938C19.8481 12.9145 19.0207 13.7419 18 13.7419C16.9793 13.7419 16.1519 12.9145 16.1519 11.8938Z" fill="white"/>
</g>
</svg>
