<svg width="40" height="40" viewBox="0 0 40 40" fill="none" xmlns="http://www.w3.org/2000/svg">
<g id="Figmoji / Bug">
<path id="Vector" d="M16.6462 19.8649L17.3531 19.1345C17.5481 18.933 17.5481 18.6055 17.3531 18.404L14.4137 15.3667L17.3531 12.3293C17.5481 12.1278 17.5481 11.8004 17.3531 11.5989L16.6462 10.8684C16.4513 10.6669 16.1344 10.6669 15.9394 10.8684L11.9394 15.0018C11.7444 15.2033 11.7444 15.5307 11.9394 15.7322L15.9394 19.8655C16.135 20.067 16.4513 20.067 16.6462 19.8649ZM22.6462 19.1345L23.3531 19.8649C23.5481 20.0664 23.865 20.0664 24.06 19.8649L28.06 15.7316C28.255 15.5301 28.255 15.2026 28.06 15.0011L24.06 10.8678C23.865 10.6663 23.5481 10.6663 23.3531 10.8678L22.6462 11.5982C22.4513 11.7997 22.4513 12.1272 22.6462 12.3287L25.5863 15.3667L22.6469 18.404C22.6004 18.4519 22.5635 18.5088 22.5383 18.5715C22.5131 18.6341 22.5001 18.7013 22.5001 18.7691C22.5 18.8369 22.5129 18.9041 22.538 18.9668C22.5631 19.0295 22.5999 19.0865 22.6462 19.1345ZM39 25.7H36V8.13333C36 5.85354 34.205 4 32 4H8C5.795 4 4 5.85354 4 8.13333V25.7H1C0.4475 25.7 0 26.1624 0 26.7333V29.8333C0 32.6821 2.2425 35 5 35H35C37.7575 35 40 32.6821 40 29.8333V26.7333C40 26.1624 39.5525 25.7 39 25.7ZM6 8.13333C6 6.99215 6.89563 6.06667 8 6.06667H32C33.1044 6.06667 34 6.99215 34 8.13333V25.7H24.4456C24.1919 25.7 24.0069 25.9021 23.9506 26.1579C23.7487 27.0789 22.9519 27.7667 22 27.7667H18C17.0481 27.7667 16.2513 27.0789 16.0494 26.1579C15.9931 25.9021 15.8081 25.7 15.5544 25.7H6V8.13333ZM38 29.8333C38 31.5429 36.6544 32.9333 35 32.9333H5C3.34562 32.9333 2 31.5429 2 29.8333V27.7667H14.1719C14.5837 28.9692 15.6956 29.8333 17 29.8333H23C24.305 29.8333 25.4163 28.9692 25.8281 27.7667H38V29.8333Z" fill="#AC6610"/>
</g>
</svg>
