<svg width="42" height="42" viewBox="0 0 42 42" fill="none" xmlns="http://www.w3.org/2000/svg">
<g id="Emoji">
<path id="Vector" d="M42 37.3333C42 39.9105 39.9105 42 37.3333 42H4.66667C2.0895 42 0 39.9105 0 37.3333V4.66667C0 2.0895 2.0895 0 4.66667 0H37.3333C39.9105 0 42 2.0895 42 4.66667V37.3333Z" fill="#77B255"/>
<path id="Vector_2" d="M34.16 7.42234C32.8114 6.54617 31.0054 6.93 30.1257 8.281L17.4254 27.8565L11.5582 22.4315C10.3752 21.3372 8.52953 21.4107 7.43636 22.5925C6.3432 23.7755 6.41553 25.6212 7.59853 26.7143L16.009 34.4913C16.569 35.0105 17.2807 35.2672 17.9877 35.2672C18.7729 35.2672 19.7774 34.9382 20.4365 33.9383C20.8239 33.348 35.0199 11.4567 35.0199 11.4567C35.896 10.1045 35.511 8.2985 34.16 7.42234Z" fill="white"/>
</g>
</svg>
