<svg width="36" height="36" viewBox="0 0 36 36" fill="none" xmlns="http://www.w3.org/2000/svg">
<g id="Heading Tech Icon">
<path id="Vector" d="M26.3391 10.5929L22.4062 6.66081C21.9844 6.23902 21.4125 6 20.8172 6H11.25C10.0078 6.00469 9 7.0123 9 8.25425V27.7504C9 28.9924 10.0078 30 11.25 30H24.75C25.9922 30 27 28.9924 27 27.7504V12.1863C27 11.5911 26.7609 11.0146 26.3391 10.5929ZM25.2797 11.6567C25.3781 11.7551 25.4438 11.8723 25.4766 12.0035H21V7.52783C21.1313 7.56063 21.2484 7.62624 21.3469 7.72466L25.2797 11.6567ZM24.75 28.5003H11.25C10.8375 28.5003 10.5 28.1629 10.5 27.7504V8.25425C10.5 7.84183 10.8375 7.50439 11.25 7.50439H19.5V12.3784C19.5 13.0018 20.0016 13.5032 20.625 13.5032H25.5V27.7504C25.5 28.1629 25.1625 28.5003 24.75 28.5003ZM21.3141 22.5062C21.5344 22.7264 21.5344 23.0826 21.3141 23.3029L21.0469 23.57C20.8266 23.7903 20.4703 23.7903 20.25 23.57L18 21.3111L15.7453 23.5653C15.525 23.7856 15.1688 23.7856 14.9484 23.5653L14.6812 23.2982C14.4609 23.0779 14.4609 22.7217 14.6812 22.5015L16.9359 20.2472L14.6812 17.993C14.4609 17.7727 14.4609 17.4165 14.6812 17.1963L14.9484 16.9291C15.1688 16.7088 15.525 16.7088 15.7453 16.9291L18 19.1834L20.2547 16.9291C20.475 16.7088 20.8313 16.7088 21.0516 16.9291L21.3187 17.1963C21.5391 17.4165 21.5391 17.7727 21.3187 17.993L19.0594 20.2519L21.3141 22.5062Z" fill="white"/>
</g>
</svg>
