<svg width="40" height="40" viewBox="0 0 40 40" fill="none" xmlns="http://www.w3.org/2000/svg">
<g id="Figmoji / Idea">
<path id="Vector" d="M33.8984 7.65476L27.3438 1.10135C26.6406 0.39836 25.6875 0 24.6953 0H8.75C6.67969 0.00781097 5 1.68717 5 3.75708V36.2507C5 38.3206 6.67969 40 8.75 40H31.25C33.3203 40 35 38.3206 35 36.2507V10.3105C35 9.31849 34.6016 8.35774 33.8984 7.65476ZM32.1328 9.42785C32.2969 9.59188 32.4062 9.78715 32.4609 10.0059H25V2.54638C25.2188 2.60105 25.4141 2.71041 25.5781 2.87444L32.1328 9.42785ZM31.25 37.5005H8.75C8.0625 37.5005 7.5 36.9381 7.5 36.2507V3.75708C7.5 3.06971 8.0625 2.50732 8.75 2.50732H22.5V10.6307C22.5 11.6696 23.3359 12.5054 24.375 12.5054H32.5V36.2507C32.5 36.9381 31.9375 37.5005 31.25 37.5005ZM25.5234 27.5103C25.8906 27.8774 25.8906 28.471 25.5234 28.8381L25.0781 29.2833C24.7109 29.6505 24.1172 29.6505 23.75 29.2833L20 25.5185L16.2422 29.2755C15.875 29.6427 15.2812 29.6427 14.9141 29.2755L14.4688 28.8303C14.1016 28.4632 14.1016 27.8696 14.4688 27.5024L18.2266 23.7454L14.4688 19.9883C14.1016 19.6212 14.1016 19.0275 14.4688 18.6604L14.9141 18.2152C15.2812 17.8481 15.875 17.8481 16.2422 18.2152L20 21.9723L23.7578 18.2152C24.125 17.8481 24.7188 17.8481 25.0859 18.2152L25.5312 18.6604C25.8984 19.0275 25.8984 19.6212 25.5312 19.9883L21.7656 23.7532L25.5234 27.5103Z" fill="#6A7F17"/>
</g>
</svg>
