<svg width="36" height="36" viewBox="0 0 36 36" fill="none" xmlns="http://www.w3.org/2000/svg">
<g id="Heading Tech Icon">
<path id="Vector" d="M15.9878 18.7236L16.4119 18.276C16.5289 18.1525 16.5289 17.9518 16.4119 17.8283L14.6483 15.9667L16.4119 14.1051C16.5289 13.9816 16.5289 13.7809 16.4119 13.6574L15.9878 13.2097C15.8708 13.0862 15.6806 13.0862 15.5636 13.2097L13.1636 15.743C13.0466 15.8665 13.0466 16.0672 13.1636 16.1907L15.5636 18.724C15.681 18.8475 15.8708 18.8475 15.9878 18.7236ZM19.5878 18.276L20.0119 18.7236C20.1289 18.8471 20.319 18.8471 20.436 18.7236L22.836 16.1903C22.953 16.0668 22.953 15.8661 22.836 15.7426L20.436 13.2093C20.319 13.0858 20.1289 13.0858 20.0119 13.2093L19.5878 13.657C19.4708 13.7805 19.4708 13.9812 19.5878 14.1047L21.3518 15.9667L19.5881 17.8283C19.5602 17.8576 19.5381 17.8925 19.523 17.9309C19.5079 17.9693 19.5001 18.0105 19.5 18.052C19.5 18.0936 19.5077 18.1348 19.5228 18.1732C19.5378 18.2116 19.5599 18.2465 19.5878 18.276ZM29.4 22.3H27.6V11.5333C27.6 10.136 26.523 9 25.2 9H10.8C9.477 9 8.4 10.136 8.4 11.5333V22.3H6.6C6.2685 22.3 6 22.5834 6 22.9333V24.8333C6 26.5794 7.3455 28 9 28H27C28.6545 28 30 26.5794 30 24.8333V22.9333C30 22.5834 29.7315 22.3 29.4 22.3ZM9.6 11.5333C9.6 10.8339 10.1374 10.2667 10.8 10.2667H25.2C25.8626 10.2667 26.4 10.8339 26.4 11.5333V22.3H20.6674C20.5151 22.3 20.4041 22.4239 20.3704 22.5806C20.2493 23.1451 19.7711 23.5667 19.2 23.5667H16.8C16.2289 23.5667 15.7508 23.1451 15.6296 22.5806C15.5959 22.4239 15.4849 22.3 15.3326 22.3H9.6V11.5333ZM28.8 24.8333C28.8 25.8811 27.9926 26.7333 27 26.7333H9C8.00738 26.7333 7.2 25.8811 7.2 24.8333V23.5667H14.5031C14.7502 24.3037 15.4174 24.8333 16.2 24.8333H19.8C20.583 24.8333 21.2498 24.3037 21.4969 23.5667H28.8V24.8333Z" fill="white"/>
</g>
</svg>
