<svg width="40" height="40" viewBox="0 0 40 40" fill="none" xmlns="http://www.w3.org/2000/svg">
<g id="Figmoji / Thought">
<path id="Vector" d="M20 0C8.95427 0 0 8.95427 0 20C0 31.0457 8.95427 40 20 40C31.0457 40 40 31.0457 40 20C40 8.95427 31.0457 0 20 0ZM20 37.4194C10.4304 37.4194 2.58065 29.673 2.58065 20C2.58065 10.4304 10.327 2.58065 20 2.58065C29.5696 2.58065 37.4194 10.327 37.4194 20C37.4194 29.5696 29.673 37.4194 20 37.4194ZM31.2662 13.2519C31.4299 13.9455 31.0004 14.6404 30.3069 14.8042C27.8064 15.3946 25.4717 15.9151 23.1545 16.1844C23.1977 25.4466 24.2164 27.4737 25.3525 30.3808C25.6767 31.2106 25.2668 32.146 24.437 32.47C23.6067 32.7944 22.6717 32.3838 22.3478 31.5545C21.5963 29.6319 20.8518 27.9606 20.3905 24.516H19.6094C19.1475 27.9655 18.4009 29.6382 17.6522 31.5544C17.3277 32.385 16.3915 32.7939 15.563 32.47C14.7332 32.1459 14.3234 31.2106 14.6474 30.3808C15.7848 27.4709 16.8023 25.4425 16.8454 16.1844C14.5281 15.9151 12.1935 15.3946 9.69306 14.8042C8.99952 14.6404 8.57 13.9455 8.73379 13.2519C8.8975 12.5583 9.59242 12.1288 10.2861 12.2925C18.7718 14.2961 21.2119 14.3 29.7139 12.2925C30.4073 12.1294 31.1024 12.5584 31.2662 13.2519ZM16.9198 9.82306C16.9198 8.12193 18.2989 6.74298 20 6.74298C21.7011 6.74298 23.0802 8.12202 23.0802 9.82306C23.0802 11.5241 21.7011 12.9032 20 12.9032C18.2989 12.9032 16.9198 11.5242 16.9198 9.82306Z" fill="#115E6E"/>
</g>
</svg>
